<svg xmlns="http://www.w3.org/2000/svg" xmlns:xlink="http://www.w3.org/1999/xlink" width="542" zoomAndPan="magnify" viewBox="0 0 406.5 187.499995" height="250" preserveAspectRatio="xMidYMid meet" version="1.0"><defs><g/><clipPath id="638b9b2113"><rect x="0" width="271" y="0" height="34"/></clipPath><clipPath id="9635c5dd75"><rect x="0" width="296" y="0" height="145"/></clipPath></defs><g transform="matrix(1, 0, 0, 1, 63, 21)"><g clip-path="url(#9635c5dd75)"><g fill="#373643" fill-opacity="1"><g transform="translate(1.453953, 106.916459)"><g><path d="M 30.34375 -28.578125 C 29.164062 -29.953125 27.78125 -30.921875 26.1875 -31.484375 C 24.601562 -32.054688 23.039062 -32.34375 21.5 -32.34375 C 18.125 -32.34375 15.410156 -31.175781 13.359375 -28.84375 C 11.316406 -26.507812 10.296875 -23.375 10.296875 -19.4375 C 10.296875 -15.644531 11.359375 -12.597656 13.484375 -10.296875 C 15.609375 -7.992188 18.382812 -6.84375 21.8125 -6.84375 C 23.351562 -6.84375 24.914062 -7.109375 26.5 -7.640625 C 28.082031 -8.179688 29.488281 -9.066406 30.71875 -10.296875 C 31.851562 -11.421875 32.96875 -12.007812 34.0625 -12.0625 C 35.164062 -12.113281 36.078125 -11.804688 36.796875 -11.140625 C 37.515625 -10.472656 37.910156 -9.613281 37.984375 -8.5625 C 38.054688 -7.507812 37.609375 -6.445312 36.640625 -5.375 C 34.640625 -3.175781 32.347656 -1.601562 29.765625 -0.65625 C 27.179688 0.289062 24.503906 0.765625 21.734375 0.765625 C 17.691406 0.765625 14.144531 -0.078125 11.09375 -1.765625 C 8.050781 -3.453125 5.679688 -5.804688 3.984375 -8.828125 C 2.296875 -11.847656 1.453125 -15.359375 1.453125 -19.359375 C 1.453125 -23.503906 2.285156 -27.113281 3.953125 -30.1875 C 5.617188 -33.257812 7.960938 -35.640625 10.984375 -37.328125 C 14.003906 -39.015625 17.507812 -39.859375 21.5 -39.859375 C 24.320312 -39.859375 26.945312 -39.421875 29.375 -38.546875 C 31.8125 -37.679688 34.054688 -36.046875 36.109375 -33.640625 C 37.023438 -32.566406 37.414062 -31.515625 37.28125 -30.484375 C 37.15625 -29.460938 36.707031 -28.617188 35.9375 -27.953125 C 35.175781 -27.296875 34.269531 -26.976562 33.21875 -27 C 32.164062 -27.019531 31.207031 -27.546875 30.34375 -28.578125 Z M 30.34375 -28.578125 "/></g></g></g><g fill="#373643" fill-opacity="1"><g transform="translate(59.828723, 106.916459)"><g><path d="M 11.4375 -3.84375 C 11.4375 -2.8125 11.015625 -1.910156 10.171875 -1.140625 C 9.328125 -0.378906 8.289062 0 7.0625 0 C 5.78125 0 4.726562 -0.378906 3.90625 -1.140625 C 3.09375 -1.910156 2.6875 -2.8125 2.6875 -3.84375 L 2.6875 -45.859375 C 2.6875 -46.878906 3.09375 -47.773438 3.90625 -48.546875 C 4.726562 -49.316406 5.78125 -49.703125 7.0625 -49.703125 C 8.289062 -49.703125 9.328125 -49.316406 10.171875 -48.546875 C 11.015625 -47.773438 11.4375 -46.878906 11.4375 -45.859375 Z M 11.4375 -3.84375 "/></g></g></g><g fill="#373643" fill-opacity="1"><g transform="translate(92.396161, 106.916459)"><g><path d="M 35.71875 -39.09375 C 37.050781 -39.09375 38.113281 -38.722656 38.90625 -37.984375 C 39.695312 -37.242188 40.09375 -36.285156 40.09375 -35.109375 L 40.09375 -4 C 40.09375 -2.820312 39.695312 -1.859375 38.90625 -1.109375 C 38.113281 -0.367188 37.050781 0 35.71875 0 C 34.4375 0 33.4375 -0.289062 32.71875 -0.875 C 32 -1.46875 31.566406 -2.25 31.421875 -3.21875 C 29.679688 -1.84375 27.734375 -0.832031 25.578125 -0.1875 C 23.429688 0.445312 21.382812 0.765625 19.4375 0.765625 C 15.75 0.765625 12.5625 -0.078125 9.875 -1.765625 C 7.1875 -3.453125 5.125 -5.832031 3.6875 -8.90625 C 2.25 -11.976562 1.53125 -15.5625 1.53125 -19.65625 C 1.53125 -23.65625 2.320312 -27.164062 3.90625 -30.1875 C 5.5 -33.207031 7.71875 -35.570312 10.5625 -37.28125 C 13.40625 -39 16.695312 -39.859375 20.4375 -39.859375 C 22.070312 -39.859375 23.882812 -39.550781 25.875 -38.9375 C 27.875 -38.320312 29.722656 -37.351562 31.421875 -36.03125 C 31.617188 -36.945312 32.078125 -37.6875 32.796875 -38.25 C 33.515625 -38.8125 34.488281 -39.09375 35.71875 -39.09375 Z M 20.359375 -6.984375 C 22.609375 -6.984375 24.78125 -7.484375 26.875 -8.484375 C 28.976562 -9.484375 30.46875 -10.957031 31.34375 -12.90625 L 31.34375 -26.1875 C 30.363281 -28.082031 28.898438 -29.539062 26.953125 -30.5625 C 25.015625 -31.59375 23.046875 -32.109375 21.046875 -32.109375 C 17.816406 -32.109375 15.21875 -30.929688 13.25 -28.578125 C 11.28125 -26.222656 10.296875 -23.226562 10.296875 -19.59375 C 10.296875 -15.800781 11.21875 -12.75 13.0625 -10.4375 C 14.90625 -8.132812 17.335938 -6.984375 20.359375 -6.984375 Z M 20.359375 -6.984375 "/></g></g></g><g fill="#373643" fill-opacity="1"><g transform="translate(156.761928, 106.916459)"><g><path d="M 20.734375 -39.09375 C 22.117188 -39.09375 23.21875 -38.796875 24.03125 -38.203125 C 24.851562 -37.617188 25.265625 -36.660156 25.265625 -35.328125 C 25.265625 -34.097656 24.851562 -33.125 24.03125 -32.40625 C 23.21875 -31.695312 22.117188 -31.34375 20.734375 -31.34375 C 17.515625 -31.34375 15.25 -30.1875 13.9375 -27.875 C 12.632812 -25.570312 11.984375 -22.453125 11.984375 -18.515625 L 11.984375 -3.921875 C 11.984375 -2.796875 11.570312 -1.859375 10.75 -1.109375 C 9.9375 -0.367188 8.941406 0 7.765625 0 C 6.429688 0 5.351562 -0.367188 4.53125 -1.109375 C 3.707031 -1.859375 3.296875 -2.796875 3.296875 -3.921875 L 3.296875 -35.1875 C 3.296875 -36.414062 3.769531 -37.375 4.71875 -38.0625 C 5.664062 -38.75 6.679688 -39.09375 7.765625 -39.09375 C 8.835938 -39.09375 9.804688 -38.757812 10.671875 -38.09375 C 11.546875 -37.425781 11.984375 -36.457031 11.984375 -35.1875 L 11.984375 -34.71875 C 13.109375 -36.207031 14.410156 -37.304688 15.890625 -38.015625 C 17.378906 -38.734375 18.992188 -39.09375 20.734375 -39.09375 Z M 20.734375 -39.09375 "/></g></g></g><g fill="#373643" fill-opacity="1"><g transform="translate(199.698381, 106.916459)"><g><path d="M 11.515625 -44.859375 C 11.515625 -43.578125 11.039062 -42.613281 10.09375 -41.96875 C 9.15625 -41.332031 8.144531 -41.015625 7.0625 -41.015625 C 5.9375 -41.015625 4.910156 -41.332031 3.984375 -41.96875 C 3.066406 -42.613281 2.609375 -43.578125 2.609375 -44.859375 L 2.609375 -45.859375 C 2.609375 -47.191406 3.066406 -48.164062 3.984375 -48.78125 C 4.910156 -49.394531 5.9375 -49.703125 7.0625 -49.703125 C 8.144531 -49.703125 9.15625 -49.394531 10.09375 -48.78125 C 11.039062 -48.164062 11.515625 -47.191406 11.515625 -45.859375 Z M 2.6875 -35.328125 C 2.6875 -36.554688 3.160156 -37.488281 4.109375 -38.125 C 5.054688 -38.769531 6.039062 -39.09375 7.0625 -39.09375 C 8.144531 -39.09375 9.144531 -38.769531 10.0625 -38.125 C 10.976562 -37.488281 11.4375 -36.582031 11.4375 -35.40625 L 11.4375 -3.765625 C 11.4375 -2.484375 10.976562 -1.535156 10.0625 -0.921875 C 9.144531 -0.304688 8.144531 0 7.0625 0 C 6.039062 0 5.054688 -0.304688 4.109375 -0.921875 C 3.160156 -1.535156 2.6875 -2.484375 2.6875 -3.765625 Z M 2.6875 -35.328125 "/></g></g></g><g fill="#373643" fill-opacity="1"><g transform="translate(232.265818, 106.916459)"><g><path d="M 21.96875 -39.859375 C 26.0625 -39.859375 29.644531 -39 32.71875 -37.28125 C 35.789062 -35.570312 38.171875 -33.179688 39.859375 -30.109375 C 41.554688 -27.035156 42.40625 -23.453125 42.40625 -19.359375 C 42.351562 -15.359375 41.46875 -11.847656 39.75 -8.828125 C 38.03125 -5.804688 35.644531 -3.453125 32.59375 -1.765625 C 29.550781 -0.078125 26.007812 0.765625 21.96875 0.765625 C 17.976562 0.765625 14.445312 -0.078125 11.375 -1.765625 C 8.300781 -3.453125 5.90625 -5.804688 4.1875 -8.828125 C 2.46875 -11.847656 1.582031 -15.359375 1.53125 -19.359375 C 1.53125 -23.453125 2.390625 -27.035156 4.109375 -30.109375 C 5.828125 -33.179688 8.222656 -35.570312 11.296875 -37.28125 C 14.367188 -39 17.925781 -39.859375 21.96875 -39.859375 Z M 21.96875 -6.90625 C 25.445312 -6.90625 28.222656 -8.054688 30.296875 -10.359375 C 32.367188 -12.671875 33.40625 -15.671875 33.40625 -19.359375 C 33.40625 -23.148438 32.367188 -26.234375 30.296875 -28.609375 C 28.222656 -30.992188 25.445312 -32.1875 21.96875 -32.1875 C 18.539062 -32.1875 15.773438 -30.992188 13.671875 -28.609375 C 11.566406 -26.234375 10.515625 -23.148438 10.515625 -19.359375 C 10.515625 -15.671875 11.566406 -12.671875 13.671875 -10.359375 C 15.773438 -8.054688 18.539062 -6.90625 21.96875 -6.90625 Z M 21.96875 -6.90625 "/></g></g></g><g transform="matrix(1, 0, 0, 1, 2, 108)"><g clip-path="url(#638b9b2113)"><g fill="#373643" fill-opacity="1"><g transform="translate(1.283388, 25.335409)"><g><path d="M 13.296875 -6.796875 C 13.296875 -6.398438 13.273438 -5.976562 13.234375 -5.53125 L 3.140625 -5.53125 C 3.210938 -4.289062 3.632812 -3.316406 4.40625 -2.609375 C 5.1875 -1.910156 6.128906 -1.5625 7.234375 -1.5625 C 8.140625 -1.5625 8.894531 -1.769531 9.5 -2.1875 C 10.113281 -2.613281 10.539062 -3.179688 10.78125 -3.890625 L 13.046875 -3.890625 C 12.703125 -2.679688 12.023438 -1.695312 11.015625 -0.9375 C 10.003906 -0.175781 8.742188 0.203125 7.234375 0.203125 C 6.035156 0.203125 4.960938 -0.0625 4.015625 -0.59375 C 3.078125 -1.132812 2.335938 -1.898438 1.796875 -2.890625 C 1.253906 -3.878906 0.984375 -5.03125 0.984375 -6.34375 C 0.984375 -7.644531 1.242188 -8.785156 1.765625 -9.765625 C 2.296875 -10.753906 3.03125 -11.515625 3.96875 -12.046875 C 4.914062 -12.578125 6.003906 -12.84375 7.234375 -12.84375 C 8.429688 -12.84375 9.488281 -12.578125 10.40625 -12.046875 C 11.332031 -11.523438 12.046875 -10.804688 12.546875 -9.890625 C 13.046875 -8.984375 13.296875 -7.953125 13.296875 -6.796875 Z M 11.125 -7.234375 C 11.125 -8.035156 10.945312 -8.722656 10.59375 -9.296875 C 10.25 -9.867188 9.769531 -10.304688 9.15625 -10.609375 C 8.550781 -10.910156 7.878906 -11.0625 7.140625 -11.0625 C 6.078125 -11.0625 5.171875 -10.722656 4.421875 -10.046875 C 3.679688 -9.367188 3.257812 -8.429688 3.15625 -7.234375 Z M 11.125 -7.234375 "/></g></g></g><g fill="#373643" fill-opacity="1"><g transform="translate(14.438848, 25.335409)"><g><path d="M 7.921875 -12.859375 C 9.460938 -12.859375 10.707031 -12.394531 11.65625 -11.46875 C 12.613281 -10.539062 13.09375 -9.195312 13.09375 -7.4375 L 13.09375 0 L 11.015625 0 L 11.015625 -7.140625 C 11.015625 -8.398438 10.695312 -9.363281 10.0625 -10.03125 C 9.4375 -10.707031 8.578125 -11.046875 7.484375 -11.046875 C 6.378906 -11.046875 5.5 -10.695312 4.84375 -10 C 4.195312 -9.3125 3.875 -8.304688 3.875 -6.984375 L 3.875 0 L 1.78125 0 L 1.78125 -12.625 L 3.875 -12.625 L 3.875 -10.828125 C 4.289062 -11.472656 4.851562 -11.972656 5.5625 -12.328125 C 6.28125 -12.679688 7.066406 -12.859375 7.921875 -12.859375 Z M 7.921875 -12.859375 "/></g></g></g><g fill="#373643" fill-opacity="1"><g transform="translate(28.055108, 25.335409)"><g><path d="M 4.328125 -10.90625 L 4.328125 -3.453125 C 4.328125 -2.835938 4.457031 -2.40625 4.71875 -2.15625 C 4.976562 -1.90625 5.429688 -1.78125 6.078125 -1.78125 L 7.625 -1.78125 L 7.625 0 L 5.734375 0 C 4.566406 0 3.691406 -0.265625 3.109375 -0.796875 C 2.523438 -1.335938 2.234375 -2.222656 2.234375 -3.453125 L 2.234375 -10.90625 L 0.59375 -10.90625 L 0.59375 -12.625 L 2.234375 -12.625 L 2.234375 -15.8125 L 4.328125 -15.8125 L 4.328125 -12.625 L 7.625 -12.625 L 7.625 -10.90625 Z M 4.328125 -10.90625 "/></g></g></g><g fill="#373643" fill-opacity="1"><g transform="translate(35.31228, 25.335409)"><g><path d="M 13.296875 -6.796875 C 13.296875 -6.398438 13.273438 -5.976562 13.234375 -5.53125 L 3.140625 -5.53125 C 3.210938 -4.289062 3.632812 -3.316406 4.40625 -2.609375 C 5.1875 -1.910156 6.128906 -1.5625 7.234375 -1.5625 C 8.140625 -1.5625 8.894531 -1.769531 9.5 -2.1875 C 10.113281 -2.613281 10.539062 -3.179688 10.78125 -3.890625 L 13.046875 -3.890625 C 12.703125 -2.679688 12.023438 -1.695312 11.015625 -0.9375 C 10.003906 -0.175781 8.742188 0.203125 7.234375 0.203125 C 6.035156 0.203125 4.960938 -0.0625 4.015625 -0.59375 C 3.078125 -1.132812 2.335938 -1.898438 1.796875 -2.890625 C 1.253906 -3.878906 0.984375 -5.03125 0.984375 -6.34375 C 0.984375 -7.644531 1.242188 -8.785156 1.765625 -9.765625 C 2.296875 -10.753906 3.03125 -11.515625 3.96875 -12.046875 C 4.914062 -12.578125 6.003906 -12.84375 7.234375 -12.84375 C 8.429688 -12.84375 9.488281 -12.578125 10.40625 -12.046875 C 11.332031 -11.523438 12.046875 -10.804688 12.546875 -9.890625 C 13.046875 -8.984375 13.296875 -7.953125 13.296875 -6.796875 Z M 11.125 -7.234375 C 11.125 -8.035156 10.945312 -8.722656 10.59375 -9.296875 C 10.25 -9.867188 9.769531 -10.304688 9.15625 -10.609375 C 8.550781 -10.910156 7.878906 -11.0625 7.140625 -11.0625 C 6.078125 -11.0625 5.171875 -10.722656 4.421875 -10.046875 C 3.679688 -9.367188 3.257812 -8.429688 3.15625 -7.234375 Z M 11.125 -7.234375 "/></g></g></g><g fill="#373643" fill-opacity="1"><g transform="translate(48.46774, 25.335409)"><g><path d="M 7.921875 -12.859375 C 9.460938 -12.859375 10.707031 -12.394531 11.65625 -11.46875 C 12.613281 -10.539062 13.09375 -9.195312 13.09375 -7.4375 L 13.09375 0 L 11.015625 0 L 11.015625 -7.140625 C 11.015625 -8.398438 10.695312 -9.363281 10.0625 -10.03125 C 9.4375 -10.707031 8.578125 -11.046875 7.484375 -11.046875 C 6.378906 -11.046875 5.5 -10.695312 4.84375 -10 C 4.195312 -9.3125 3.875 -8.304688 3.875 -6.984375 L 3.875 0 L 1.78125 0 L 1.78125 -12.625 L 3.875 -12.625 L 3.875 -10.828125 C 4.289062 -11.472656 4.851562 -11.972656 5.5625 -12.328125 C 6.28125 -12.679688 7.066406 -12.859375 7.921875 -12.859375 Z M 7.921875 -12.859375 "/></g></g></g><g fill="#373643" fill-opacity="1"><g transform="translate(62.084, 25.335409)"><g><path d="M 0.984375 -6.359375 C 0.984375 -7.648438 1.242188 -8.78125 1.765625 -9.75 C 2.296875 -10.726562 3.015625 -11.488281 3.921875 -12.03125 C 4.835938 -12.570312 5.863281 -12.84375 7 -12.84375 C 7.988281 -12.84375 8.90625 -12.613281 9.75 -12.15625 C 10.59375 -11.707031 11.238281 -11.113281 11.6875 -10.375 L 11.6875 -17.0625 L 13.8125 -17.0625 L 13.8125 0 L 11.6875 0 L 11.6875 -2.375 C 11.269531 -1.625 10.65625 -1.003906 9.84375 -0.515625 C 9.03125 -0.0351562 8.078125 0.203125 6.984375 0.203125 C 5.859375 0.203125 4.835938 -0.0703125 3.921875 -0.625 C 3.015625 -1.175781 2.296875 -1.953125 1.765625 -2.953125 C 1.242188 -3.953125 0.984375 -5.085938 0.984375 -6.359375 Z M 11.6875 -6.34375 C 11.6875 -7.289062 11.492188 -8.117188 11.109375 -8.828125 C 10.722656 -9.535156 10.203125 -10.078125 9.546875 -10.453125 C 8.898438 -10.828125 8.179688 -11.015625 7.390625 -11.015625 C 6.609375 -11.015625 5.894531 -10.828125 5.25 -10.453125 C 4.601562 -10.085938 4.085938 -9.550781 3.703125 -8.84375 C 3.328125 -8.144531 3.140625 -7.316406 3.140625 -6.359375 C 3.140625 -5.390625 3.328125 -4.546875 3.703125 -3.828125 C 4.085938 -3.117188 4.601562 -2.578125 5.25 -2.203125 C 5.894531 -1.828125 6.609375 -1.640625 7.390625 -1.640625 C 8.179688 -1.640625 8.898438 -1.828125 9.546875 -2.203125 C 10.203125 -2.578125 10.722656 -3.117188 11.109375 -3.828125 C 11.492188 -4.546875 11.6875 -5.382812 11.6875 -6.34375 Z M 11.6875 -6.34375 "/></g></g></g><g fill="#373643" fill-opacity="1"><g transform="translate(76.529702, 25.335409)"><g><path d="M 0.984375 -6.359375 C 0.984375 -7.648438 1.242188 -8.78125 1.765625 -9.75 C 2.296875 -10.726562 3.015625 -11.488281 3.921875 -12.03125 C 4.835938 -12.570312 5.859375 -12.84375 6.984375 -12.84375 C 8.085938 -12.84375 9.046875 -12.601562 9.859375 -12.125 C 10.671875 -11.644531 11.28125 -11.046875 11.6875 -10.328125 L 11.6875 -12.625 L 13.8125 -12.625 L 13.8125 0 L 11.6875 0 L 11.6875 -2.34375 C 11.269531 -1.613281 10.648438 -1.003906 9.828125 -0.515625 C 9.003906 -0.0351562 8.046875 0.203125 6.953125 0.203125 C 5.835938 0.203125 4.828125 -0.0703125 3.921875 -0.625 C 3.015625 -1.175781 2.296875 -1.953125 1.765625 -2.953125 C 1.242188 -3.953125 0.984375 -5.085938 0.984375 -6.359375 Z M 11.6875 -6.34375 C 11.6875 -7.289062 11.492188 -8.117188 11.109375 -8.828125 C 10.722656 -9.535156 10.203125 -10.078125 9.546875 -10.453125 C 8.898438 -10.828125 8.179688 -11.015625 7.390625 -11.015625 C 6.609375 -11.015625 5.894531 -10.828125 5.25 -10.453125 C 4.601562 -10.085938 4.085938 -9.550781 3.703125 -8.84375 C 3.328125 -8.144531 3.140625 -7.316406 3.140625 -6.359375 C 3.140625 -5.390625 3.328125 -4.546875 3.703125 -3.828125 C 4.085938 -3.117188 4.601562 -2.578125 5.25 -2.203125 C 5.894531 -1.828125 6.609375 -1.640625 7.390625 -1.640625 C 8.179688 -1.640625 8.898438 -1.828125 9.546875 -2.203125 C 10.203125 -2.578125 10.722656 -3.117188 11.109375 -3.828125 C 11.492188 -4.546875 11.6875 -5.382812 11.6875 -6.34375 Z M 11.6875 -6.34375 "/></g></g></g><g fill="#373643" fill-opacity="1"><g transform="translate(90.975405, 25.335409)"><g><path d="M 3.9375 -2.90625 L 1.359375 3.296875 L -0.046875 3.296875 L 1.640625 -2.90625 Z M 3.9375 -2.90625 "/></g></g></g><g fill="#373643" fill-opacity="1"><g transform="translate(94.407896, 25.335409)"><g/></g></g><g fill="#373643" fill-opacity="1"><g transform="translate(99.430163, 25.335409)"><g><path d="M 0.984375 -6.34375 C 0.984375 -7.644531 1.242188 -8.78125 1.765625 -9.75 C 2.296875 -10.726562 3.023438 -11.488281 3.953125 -12.03125 C 4.878906 -12.570312 5.941406 -12.84375 7.140625 -12.84375 C 8.691406 -12.84375 9.96875 -12.460938 10.96875 -11.703125 C 11.976562 -10.953125 12.644531 -9.910156 12.96875 -8.578125 L 10.71875 -8.578125 C 10.5 -9.335938 10.078125 -9.941406 9.453125 -10.390625 C 8.835938 -10.835938 8.066406 -11.0625 7.140625 -11.0625 C 5.941406 -11.0625 4.972656 -10.648438 4.234375 -9.828125 C 3.503906 -9.003906 3.140625 -7.84375 3.140625 -6.34375 C 3.140625 -4.820312 3.503906 -3.644531 4.234375 -2.8125 C 4.972656 -1.976562 5.941406 -1.5625 7.140625 -1.5625 C 8.066406 -1.5625 8.835938 -1.773438 9.453125 -2.203125 C 10.066406 -2.640625 10.488281 -3.257812 10.71875 -4.0625 L 12.96875 -4.0625 C 12.632812 -2.769531 11.957031 -1.734375 10.9375 -0.953125 C 9.925781 -0.179688 8.660156 0.203125 7.140625 0.203125 C 5.941406 0.203125 4.878906 -0.0625 3.953125 -0.59375 C 3.023438 -1.132812 2.296875 -1.894531 1.765625 -2.875 C 1.242188 -3.863281 0.984375 -5.019531 0.984375 -6.34375 Z M 0.984375 -6.34375 "/></g></g></g><g fill="#373643" fill-opacity="1"><g transform="translate(112.28609, 25.335409)"><g><path d="M 7.28125 0.203125 C 6.101562 0.203125 5.03125 -0.0625 4.0625 -0.59375 C 3.101562 -1.132812 2.347656 -1.898438 1.796875 -2.890625 C 1.253906 -3.878906 0.984375 -5.03125 0.984375 -6.34375 C 0.984375 -7.632812 1.265625 -8.773438 1.828125 -9.765625 C 2.390625 -10.753906 3.15625 -11.515625 4.125 -12.046875 C 5.09375 -12.578125 6.175781 -12.84375 7.375 -12.84375 C 8.570312 -12.84375 9.65625 -12.578125 10.625 -12.046875 C 11.59375 -11.515625 12.359375 -10.753906 12.921875 -9.765625 C 13.484375 -8.785156 13.765625 -7.644531 13.765625 -6.34375 C 13.765625 -5.03125 13.472656 -3.878906 12.890625 -2.890625 C 12.316406 -1.898438 11.535156 -1.132812 10.546875 -0.59375 C 9.566406 -0.0625 8.476562 0.203125 7.28125 0.203125 Z M 7.28125 -1.640625 C 8.03125 -1.640625 8.734375 -1.816406 9.390625 -2.171875 C 10.054688 -2.523438 10.59375 -3.050781 11 -3.75 C 11.40625 -4.457031 11.609375 -5.320312 11.609375 -6.34375 C 11.609375 -7.351562 11.410156 -8.210938 11.015625 -8.921875 C 10.617188 -9.628906 10.097656 -10.15625 9.453125 -10.5 C 8.804688 -10.84375 8.109375 -11.015625 7.359375 -11.015625 C 6.585938 -11.015625 5.878906 -10.84375 5.234375 -10.5 C 4.597656 -10.15625 4.085938 -9.628906 3.703125 -8.921875 C 3.328125 -8.210938 3.140625 -7.351562 3.140625 -6.34375 C 3.140625 -5.3125 3.328125 -4.441406 3.703125 -3.734375 C 4.078125 -3.023438 4.578125 -2.5 5.203125 -2.15625 C 5.835938 -1.8125 6.53125 -1.640625 7.28125 -1.640625 Z M 7.28125 -1.640625 "/></g></g></g><g fill="#373643" fill-opacity="1"><g transform="translate(125.90235, 25.335409)"><g><path d="M 7.921875 -12.859375 C 9.460938 -12.859375 10.707031 -12.394531 11.65625 -11.46875 C 12.613281 -10.539062 13.09375 -9.195312 13.09375 -7.4375 L 13.09375 0 L 11.015625 0 L 11.015625 -7.140625 C 11.015625 -8.398438 10.695312 -9.363281 10.0625 -10.03125 C 9.4375 -10.707031 8.578125 -11.046875 7.484375 -11.046875 C 6.378906 -11.046875 5.5 -10.695312 4.84375 -10 C 4.195312 -9.3125 3.875 -8.304688 3.875 -6.984375 L 3.875 0 L 1.78125 0 L 1.78125 -12.625 L 3.875 -12.625 L 3.875 -10.828125 C 4.289062 -11.472656 4.851562 -11.972656 5.5625 -12.328125 C 6.28125 -12.679688 7.066406 -12.859375 7.921875 -12.859375 Z M 7.921875 -12.859375 "/></g></g></g><g fill="#373643" fill-opacity="1"><g transform="translate(139.51861, 25.335409)"><g><path d="M 4.328125 -10.90625 L 4.328125 -3.453125 C 4.328125 -2.835938 4.457031 -2.40625 4.71875 -2.15625 C 4.976562 -1.90625 5.429688 -1.78125 6.078125 -1.78125 L 7.625 -1.78125 L 7.625 0 L 5.734375 0 C 4.566406 0 3.691406 -0.265625 3.109375 -0.796875 C 2.523438 -1.335938 2.234375 -2.222656 2.234375 -3.453125 L 2.234375 -10.90625 L 0.59375 -10.90625 L 0.59375 -12.625 L 2.234375 -12.625 L 2.234375 -15.8125 L 4.328125 -15.8125 L 4.328125 -12.625 L 7.625 -12.625 L 7.625 -10.90625 Z M 4.328125 -10.90625 "/></g></g></g><g fill="#373643" fill-opacity="1"><g transform="translate(146.775782, 25.335409)"><g><path d="M 3.875 -10.578125 C 4.238281 -11.296875 4.757812 -11.851562 5.4375 -12.25 C 6.125 -12.65625 6.960938 -12.859375 7.953125 -12.859375 L 7.953125 -10.6875 L 7.390625 -10.6875 C 5.046875 -10.6875 3.875 -9.414062 3.875 -6.875 L 3.875 0 L 1.78125 0 L 1.78125 -12.625 L 3.875 -12.625 Z M 3.875 -10.578125 "/></g></g></g><g fill="#373643" fill-opacity="1"><g transform="translate(154.240314, 25.335409)"><g><path d="M 7.28125 0.203125 C 6.101562 0.203125 5.03125 -0.0625 4.0625 -0.59375 C 3.101562 -1.132812 2.347656 -1.898438 1.796875 -2.890625 C 1.253906 -3.878906 0.984375 -5.03125 0.984375 -6.34375 C 0.984375 -7.632812 1.265625 -8.773438 1.828125 -9.765625 C 2.390625 -10.753906 3.15625 -11.515625 4.125 -12.046875 C 5.09375 -12.578125 6.175781 -12.84375 7.375 -12.84375 C 8.570312 -12.84375 9.65625 -12.578125 10.625 -12.046875 C 11.59375 -11.515625 12.359375 -10.753906 12.921875 -9.765625 C 13.484375 -8.785156 13.765625 -7.644531 13.765625 -6.34375 C 13.765625 -5.03125 13.472656 -3.878906 12.890625 -2.890625 C 12.316406 -1.898438 11.535156 -1.132812 10.546875 -0.59375 C 9.566406 -0.0625 8.476562 0.203125 7.28125 0.203125 Z M 7.28125 -1.640625 C 8.03125 -1.640625 8.734375 -1.816406 9.390625 -2.171875 C 10.054688 -2.523438 10.59375 -3.050781 11 -3.75 C 11.40625 -4.457031 11.609375 -5.320312 11.609375 -6.34375 C 11.609375 -7.351562 11.410156 -8.210938 11.015625 -8.921875 C 10.617188 -9.628906 10.097656 -10.15625 9.453125 -10.5 C 8.804688 -10.84375 8.109375 -11.015625 7.359375 -11.015625 C 6.585938 -11.015625 5.878906 -10.84375 5.234375 -10.5 C 4.597656 -10.15625 4.085938 -9.628906 3.703125 -8.921875 C 3.328125 -8.210938 3.140625 -7.351562 3.140625 -6.34375 C 3.140625 -5.3125 3.328125 -4.441406 3.703125 -3.734375 C 4.078125 -3.023438 4.578125 -2.5 5.203125 -2.15625 C 5.835938 -1.8125 6.53125 -1.640625 7.28125 -1.640625 Z M 7.28125 -1.640625 "/></g></g></g><g fill="#373643" fill-opacity="1"><g transform="translate(167.856574, 25.335409)"><g><path d="M 3.875 -17.0625 L 3.875 0 L 1.78125 0 L 1.78125 -17.0625 Z M 3.875 -17.0625 "/></g></g></g><g fill="#373643" fill-opacity="1"><g transform="translate(172.394994, 25.335409)"><g><path d="M 13.296875 -6.796875 C 13.296875 -6.398438 13.273438 -5.976562 13.234375 -5.53125 L 3.140625 -5.53125 C 3.210938 -4.289062 3.632812 -3.316406 4.40625 -2.609375 C 5.1875 -1.910156 6.128906 -1.5625 7.234375 -1.5625 C 8.140625 -1.5625 8.894531 -1.769531 9.5 -2.1875 C 10.113281 -2.613281 10.539062 -3.179688 10.78125 -3.890625 L 13.046875 -3.890625 C 12.703125 -2.679688 12.023438 -1.695312 11.015625 -0.9375 C 10.003906 -0.175781 8.742188 0.203125 7.234375 0.203125 C 6.035156 0.203125 4.960938 -0.0625 4.015625 -0.59375 C 3.078125 -1.132812 2.335938 -1.898438 1.796875 -2.890625 C 1.253906 -3.878906 0.984375 -5.03125 0.984375 -6.34375 C 0.984375 -7.644531 1.242188 -8.785156 1.765625 -9.765625 C 2.296875 -10.753906 3.03125 -11.515625 3.96875 -12.046875 C 4.914062 -12.578125 6.003906 -12.84375 7.234375 -12.84375 C 8.429688 -12.84375 9.488281 -12.578125 10.40625 -12.046875 C 11.332031 -11.523438 12.046875 -10.804688 12.546875 -9.890625 C 13.046875 -8.984375 13.296875 -7.953125 13.296875 -6.796875 Z M 11.125 -7.234375 C 11.125 -8.035156 10.945312 -8.722656 10.59375 -9.296875 C 10.25 -9.867188 9.769531 -10.304688 9.15625 -10.609375 C 8.550781 -10.910156 7.878906 -11.0625 7.140625 -11.0625 C 6.078125 -11.0625 5.171875 -10.722656 4.421875 -10.046875 C 3.679688 -9.367188 3.257812 -8.429688 3.15625 -7.234375 Z M 11.125 -7.234375 "/></g></g></g><g fill="#373643" fill-opacity="1"><g transform="translate(185.550454, 25.335409)"><g><path d="M 3.9375 -2.90625 L 1.359375 3.296875 L -0.046875 3.296875 L 1.640625 -2.90625 Z M 3.9375 -2.90625 "/></g></g></g><g fill="#373643" fill-opacity="1"><g transform="translate(188.982945, 25.335409)"><g/></g></g><g fill="#373643" fill-opacity="1"><g transform="translate(194.005212, 25.335409)"><g><path d="M 13.296875 -6.796875 C 13.296875 -6.398438 13.273438 -5.976562 13.234375 -5.53125 L 3.140625 -5.53125 C 3.210938 -4.289062 3.632812 -3.316406 4.40625 -2.609375 C 5.1875 -1.910156 6.128906 -1.5625 7.234375 -1.5625 C 8.140625 -1.5625 8.894531 -1.769531 9.5 -2.1875 C 10.113281 -2.613281 10.539062 -3.179688 10.78125 -3.890625 L 13.046875 -3.890625 C 12.703125 -2.679688 12.023438 -1.695312 11.015625 -0.9375 C 10.003906 -0.175781 8.742188 0.203125 7.234375 0.203125 C 6.035156 0.203125 4.960938 -0.0625 4.015625 -0.59375 C 3.078125 -1.132812 2.335938 -1.898438 1.796875 -2.890625 C 1.253906 -3.878906 0.984375 -5.03125 0.984375 -6.34375 C 0.984375 -7.644531 1.242188 -8.785156 1.765625 -9.765625 C 2.296875 -10.753906 3.03125 -11.515625 3.96875 -12.046875 C 4.914062 -12.578125 6.003906 -12.84375 7.234375 -12.84375 C 8.429688 -12.84375 9.488281 -12.578125 10.40625 -12.046875 C 11.332031 -11.523438 12.046875 -10.804688 12.546875 -9.890625 C 13.046875 -8.984375 13.296875 -7.953125 13.296875 -6.796875 Z M 11.125 -7.234375 C 11.125 -8.035156 10.945312 -8.722656 10.59375 -9.296875 C 10.25 -9.867188 9.769531 -10.304688 9.15625 -10.609375 C 8.550781 -10.910156 7.878906 -11.0625 7.140625 -11.0625 C 6.078125 -11.0625 5.171875 -10.722656 4.421875 -10.046875 C 3.679688 -9.367188 3.257812 -8.429688 3.15625 -7.234375 Z M 11.125 -7.234375 "/></g></g></g><g fill="#373643" fill-opacity="1"><g transform="translate(207.160672, 25.335409)"><g><path d="M 6.46875 -1.9375 L 10.390625 -12.625 L 12.625 -12.625 L 7.671875 0 L 5.234375 0 L 0.28125 -12.625 L 2.53125 -12.625 Z M 6.46875 -1.9375 "/></g></g></g><g fill="#373643" fill-opacity="1"><g transform="translate(218.956764, 25.335409)"><g><path d="M 7.28125 0.203125 C 6.101562 0.203125 5.03125 -0.0625 4.0625 -0.59375 C 3.101562 -1.132812 2.347656 -1.898438 1.796875 -2.890625 C 1.253906 -3.878906 0.984375 -5.03125 0.984375 -6.34375 C 0.984375 -7.632812 1.265625 -8.773438 1.828125 -9.765625 C 2.390625 -10.753906 3.15625 -11.515625 4.125 -12.046875 C 5.09375 -12.578125 6.175781 -12.84375 7.375 -12.84375 C 8.570312 -12.84375 9.65625 -12.578125 10.625 -12.046875 C 11.59375 -11.515625 12.359375 -10.753906 12.921875 -9.765625 C 13.484375 -8.785156 13.765625 -7.644531 13.765625 -6.34375 C 13.765625 -5.03125 13.472656 -3.878906 12.890625 -2.890625 C 12.316406 -1.898438 11.535156 -1.132812 10.546875 -0.59375 C 9.566406 -0.0625 8.476562 0.203125 7.28125 0.203125 Z M 7.28125 -1.640625 C 8.03125 -1.640625 8.734375 -1.816406 9.390625 -2.171875 C 10.054688 -2.523438 10.59375 -3.050781 11 -3.75 C 11.40625 -4.457031 11.609375 -5.320312 11.609375 -6.34375 C 11.609375 -7.351562 11.410156 -8.210938 11.015625 -8.921875 C 10.617188 -9.628906 10.097656 -10.15625 9.453125 -10.5 C 8.804688 -10.84375 8.109375 -11.015625 7.359375 -11.015625 C 6.585938 -11.015625 5.878906 -10.84375 5.234375 -10.5 C 4.597656 -10.15625 4.085938 -9.628906 3.703125 -8.921875 C 3.328125 -8.210938 3.140625 -7.351562 3.140625 -6.34375 C 3.140625 -5.3125 3.328125 -4.441406 3.703125 -3.734375 C 4.078125 -3.023438 4.578125 -2.5 5.203125 -2.15625 C 5.835938 -1.8125 6.53125 -1.640625 7.28125 -1.640625 Z M 7.28125 -1.640625 "/></g></g></g><g fill="#373643" fill-opacity="1"><g transform="translate(232.573024, 25.335409)"><g><path d="M 3.875 -17.0625 L 3.875 0 L 1.78125 0 L 1.78125 -17.0625 Z M 3.875 -17.0625 "/></g></g></g><g fill="#373643" fill-opacity="1"><g transform="translate(237.111444, 25.335409)"><g><path d="M 12.96875 -12.625 L 12.96875 0 L 10.875 0 L 10.875 -1.859375 C 10.476562 -1.222656 9.921875 -0.722656 9.203125 -0.359375 C 8.492188 0.00390625 7.707031 0.1875 6.84375 0.1875 C 5.863281 0.1875 4.976562 -0.015625 4.1875 -0.421875 C 3.40625 -0.828125 2.785156 -1.4375 2.328125 -2.25 C 1.878906 -3.070312 1.65625 -4.066406 1.65625 -5.234375 L 1.65625 -12.625 L 3.734375 -12.625 L 3.734375 -5.515625 C 3.734375 -4.265625 4.046875 -3.304688 4.671875 -2.640625 C 5.304688 -1.972656 6.171875 -1.640625 7.265625 -1.640625 C 8.378906 -1.640625 9.257812 -1.984375 9.90625 -2.671875 C 10.550781 -3.359375 10.875 -4.363281 10.875 -5.6875 L 10.875 -12.625 Z M 12.96875 -12.625 "/></g></g></g><g fill="#373643" fill-opacity="1"><g transform="translate(250.727703, 25.335409)"><g><path d="M 0.984375 -6.359375 C 0.984375 -7.648438 1.242188 -8.78125 1.765625 -9.75 C 2.296875 -10.726562 3.015625 -11.488281 3.921875 -12.03125 C 4.835938 -12.570312 5.859375 -12.84375 6.984375 -12.84375 C 8.085938 -12.84375 9.046875 -12.601562 9.859375 -12.125 C 10.671875 -11.644531 11.28125 -11.046875 11.6875 -10.328125 L 11.6875 -12.625 L 13.8125 -12.625 L 13.8125 0 L 11.6875 0 L 11.6875 -2.34375 C 11.269531 -1.613281 10.648438 -1.003906 9.828125 -0.515625 C 9.003906 -0.0351562 8.046875 0.203125 6.953125 0.203125 C 5.835938 0.203125 4.828125 -0.0703125 3.921875 -0.625 C 3.015625 -1.175781 2.296875 -1.953125 1.765625 -2.953125 C 1.242188 -3.953125 0.984375 -5.085938 0.984375 -6.359375 Z M 11.6875 -6.34375 C 11.6875 -7.289062 11.492188 -8.117188 11.109375 -8.828125 C 10.722656 -9.535156 10.203125 -10.078125 9.546875 -10.453125 C 8.898438 -10.828125 8.179688 -11.015625 7.390625 -11.015625 C 6.609375 -11.015625 5.894531 -10.828125 5.25 -10.453125 C 4.601562 -10.085938 4.085938 -9.550781 3.703125 -8.84375 C 3.328125 -8.144531 3.140625 -7.316406 3.140625 -6.359375 C 3.140625 -5.390625 3.328125 -4.546875 3.703125 -3.828125 C 4.085938 -3.117188 4.601562 -2.578125 5.25 -2.203125 C 5.894531 -1.828125 6.609375 -1.640625 7.390625 -1.640625 C 8.179688 -1.640625 8.898438 -1.828125 9.546875 -2.203125 C 10.203125 -2.578125 10.722656 -3.117188 11.109375 -3.828125 C 11.492188 -4.546875 11.6875 -5.382812 11.6875 -6.34375 Z M 11.6875 -6.34375 "/></g></g></g><g fill="#373643" fill-opacity="1"><g transform="translate(265.173406, 25.335409)"><g><path d="M 2.4375 0.140625 C 2.039062 0.140625 1.703125 0.00390625 1.421875 -0.265625 C 1.148438 -0.546875 1.015625 -0.890625 1.015625 -1.296875 C 1.015625 -1.691406 1.148438 -2.023438 1.421875 -2.296875 C 1.703125 -2.578125 2.039062 -2.71875 2.4375 -2.71875 C 2.820312 -2.71875 3.148438 -2.578125 3.421875 -2.296875 C 3.691406 -2.023438 3.828125 -1.691406 3.828125 -1.296875 C 3.828125 -0.890625 3.691406 -0.546875 3.421875 -0.265625 C 3.148438 0.00390625 2.820312 0.140625 2.4375 0.140625 Z M 2.4375 0.140625 "/></g></g></g></g></g><g fill="#e73469" fill-opacity="1"><g transform="translate(236.096776, 117.651746)"><g><path d="M 33.171875 -57.546875 C 34.242188 -56.328125 34.472656 -55.195312 33.859375 -54.15625 C 33.253906 -53.125 32.304688 -52.5 31.015625 -52.28125 C 29.734375 -52.070312 28.59375 -52.539062 27.59375 -53.6875 L 18.46875 -65.28125 L 9.5625 -53.6875 C 8.34375 -52.320312 7.101562 -51.78125 5.84375 -52.0625 C 4.59375 -52.351562 3.71875 -53.070312 3.21875 -54.21875 C 2.71875 -55.363281 2.96875 -56.507812 3.96875 -57.65625 L 14.8125 -71.171875 C 15.957031 -72.609375 17.207031 -73.304688 18.5625 -73.265625 C 19.925781 -73.234375 21.179688 -72.570312 22.328125 -71.28125 Z M 33.171875 -57.546875 "/></g></g></g><g fill="#e73469" fill-opacity="1"><g transform="translate(236.096776, 102.455817)"><g><path d="M 33.171875 -57.546875 C 34.242188 -56.328125 34.472656 -55.195312 33.859375 -54.15625 C 33.253906 -53.125 32.304688 -52.5 31.015625 -52.28125 C 29.734375 -52.070312 28.59375 -52.539062 27.59375 -53.6875 L 18.46875 -65.28125 L 9.5625 -53.6875 C 8.34375 -52.320312 7.101562 -51.78125 5.84375 -52.0625 C 4.59375 -52.351562 3.71875 -53.070312 3.21875 -54.21875 C 2.71875 -55.363281 2.96875 -56.507812 3.96875 -57.65625 L 14.8125 -71.171875 C 15.957031 -72.609375 17.207031 -73.304688 18.5625 -73.265625 C 19.925781 -73.234375 21.179688 -72.570312 22.328125 -71.28125 Z M 33.171875 -57.546875 "/></g></g></g></g></g></svg>